<?xml version="1.0" encoding="UTF-8" standalone="no"?>
<!-- Created with Inkscape (http://www.inkscape.org/) -->

<svg
   xmlns:dc="http://purl.org/dc/elements/1.1/"
   xmlns:cc="http://creativecommons.org/ns#"
   xmlns:rdf="http://www.w3.org/1999/02/22-rdf-syntax-ns#"
   xmlns:svg="http://www.w3.org/2000/svg"
   xmlns="http://www.w3.org/2000/svg"
   xmlns:sodipodi="http://sodipodi.sourceforge.net/DTD/sodipodi-0.dtd"
   xmlns:inkscape="http://www.inkscape.org/namespaces/inkscape"
   width="380.71027mm"
   height="380.34576mm"
   viewBox="0 0 380.71027 380.34577"
   version="1.1"
   id="svg8"
   sodipodi:docname="crous svg.svg"
   inkscape:version="0.92.3 (2405546, 2018-03-11)">
  <defs
     id="defs2" />
  <sodipodi:namedview
     id="base"
     pagecolor="#ffffff"
     bordercolor="#666666"
     borderopacity="1.0"
     inkscape:pageopacity="0.0"
     inkscape:pageshadow="2"
     inkscape:zoom="0.35"
     inkscape:cx="1788.7783"
     inkscape:cy="712.3234"
     inkscape:document-units="mm"
     inkscape:current-layer="layer1"
     showgrid="false"
     fit-margin-top="0"
     fit-margin-left="0"
     fit-margin-right="0"
     fit-margin-bottom="0"
     inkscape:window-width="1366"
     inkscape:window-height="705"
     inkscape:window-x="-8"
     inkscape:window-y="-8"
     inkscape:window-maximized="1" />
  <metadata
     id="metadata5">
    <rdf:RDF>
      <cc:Work
         rdf:about="">
        <dc:format>image/svg+xml</dc:format>
        <dc:type
           rdf:resource="http://purl.org/dc/dcmitype/StillImage" />
        <dc:title></dc:title>
      </cc:Work>
    </rdf:RDF>
  </metadata>
  <g
     inkscape:label="Calque 1"
     inkscape:groupmode="layer"
     id="layer1"
     transform="translate(367.44758,31.707067)">
    <g
       id="g1081"
       transform="translate(-263.82738,7.5595238)">
      <path
         style="fill:#f8cfd2;stroke-width:0.81264883"
         d="M 74.332547,340.75596 C 36.036405,338.62406 -2.0609224,323.75262 -33.171168,298.79146 -64.866419,273.36092 -88.498803,236.0615 -98.244396,196.0852 c -4.176934,-17.13375 -5.227634,-26.18942 -5.227634,-45.05554 0,-18.83192 1.05175,-27.92528 5.196567,-44.92924 3.51387,-14.41551 7.351396,-24.930568 14.150621,-38.773586 C -65.013397,28.416516 -34.357644,-1.9797791 4.4447461,-20.493127 45.086103,-39.883884 89.809428,-44.367515 133.31312,-33.412521 c 32.20311,8.109308 63.36752,25.8059646 87.24693,49.543026 29.39142,29.21621 48.32829,66.985861 54.4458,108.592365 0.69846,4.75041 1.26994,9.96849 1.26994,11.59573 0,2.63827 -0.19799,2.91775 -1.82846,2.58118 -9.803,-2.02358 -16.69495,-0.69102 -20.83944,4.0293 -2.17709,2.47956 -2.52422,3.49687 -2.52422,7.39748 0,4.03704 0.28921,4.81176 2.69396,7.21652 1.90683,1.90682 4.45934,3.21736 8.73598,4.48532 7.53268,2.23332 9.69893,3.55624 9.69893,5.92309 0,2.88667 -1.57508,3.80072 -6.54932,3.80072 -3.53309,0 -5.63762,-0.55426 -9.08048,-2.39146 l -4.4815,-2.39147 -1.49149,3.30754 -1.49149,3.30754 2.40483,1.93477 c 4.1533,3.34145 13.58796,5.10391 19.74007,3.68759 l 3.52019,-0.81041 -0.57442,4.19495 c -0.94353,6.89051 -5.70339,24.83915 -8.88138,33.49019 -9.29282,25.29674 -25.50408,50.67119 -44.30393,69.34613 -39.27122,39.01032 -90.78618,58.44053 -146.691073,55.32838 z M -56.910242,150.21702 v -29.66169 h -2.031622 -2.031622 v 29.66169 29.66168 h 2.031622 2.031622 z m 37.843838,28.47029 c 2.204164,-0.65525 5.217303,-2.20944 6.695853,-3.45375 2.4794888,-2.08667 2.5950312,-2.38861 1.487627,-3.88767 -1.192823,-1.61471 -1.213675,-1.61306 -3.200464,0.2534 -2.128782,1.99988 -8.384691,4.21914 -11.87219,4.21163 -6.342074,-0.0137 -12.271916,-3.74289 -14.799481,-9.30731 -2.926397,-6.44245 -3.76796,-6.12848 16.42703,-6.12848 h 17.9545336 l -0.5727468,-4.26641 C -7.97495,148.4458 -11.671202,142.50794 -17.223617,139.59857 c -6.822943,-3.5751 -17.960328,-1.79062 -22.891701,3.66782 -8.97894,9.93861 -8.776079,22.68831 0.502689,31.59402 5.023007,4.82106 12.510745,6.21571 20.546225,3.8269 z m -23.216159,-23.5415 c 0,-4.31903 5.85798,-11.35486 10.536009,-12.65448 7.64527,-2.12394 15.313173,0.40463 18.499471,6.10039 1.000144,1.78783 1.824454,4.25625 1.831808,5.48538 l 0.01337,2.23478 h -15.440329 c -12.871634,0 -15.440328,-0.19399 -15.440329,-1.16607 z m 66.041811,22.41179 c 3.895586,-2.4076 5.83208,-6.33626 5.252645,-10.6563 -0.695262,-5.18356 -3.684859,-7.79578 -11.82747,-10.33452 -8.0297511,-2.50355 -11.5207036,-5.05554 -11.5207036,-8.42197 0,-5.42904 7.2220916,-7.78371 15.5245676,-5.06159 4.864938,1.59506 4.871781,1.59501 5.746735,-0.0398 1.168752,-2.18382 -0.572673,-3.43378 -6.497485,-4.66377 -11.7061333,-2.43018 -19.60908641,2.39379 -18.5992564,11.353 0.4923189,4.36778 3.5069861,7.39096 9.4803124,9.50704 8.934335,3.16503 10.976009,4.17664 12.471137,6.17919 3.042354,4.07491 -0.180888,9.10878 -6.432758,10.04631 -4.203637,0.63037 -10.9153039,-0.83545 -13.6404649,-2.97907 -2.4382879,-1.91795 -3.41316581,-1.94852 -4.11140996,-0.12893 -0.70857294,1.8465 2.77457006,4.70758 7.68391996,6.31165 4.9825529,1.62799 12.9027509,1.09364 16.4702309,-1.11118 z m 72.050259,0.61724 c 4.028845,-1.20707 11.765433,-7.97947 13.903783,-12.17101 0.87713,-1.7193 1.59478,-3.32342 1.59478,-3.56471 0,-0.24128 -2.36605,-0.4387 -5.25789,-0.4387 -4.94047,0 -5.36974,0.15217 -7.110675,2.52069 -2.737911,3.72489 -9.068234,6.70015 -13.103906,6.15885 -3.523832,-0.47264 -8.854256,-3.8284 -11.205224,-7.05424 -0.814356,-1.11739 -2.058456,-4.3172 -2.764681,-7.11068 -1.172189,-4.6366 -1.171132,-5.5215 0.01211,-10.15811 2.237344,-8.76728 7.674201,-13.60813 15.286355,-13.6106 4.713689,-0.002 9.532306,2.28605 11.941095,5.66888 1.635946,2.29747 2.087146,2.45634 6.975946,2.45634 2.87479,0 5.22689,-0.195 5.22689,-0.43333 0,-0.23834 -0.89626,-2.20201 -1.99168,-4.36372 -3.87282,-7.64266 -12.533763,-12.62691 -21.993296,-12.65686 -13.841507,-0.0438 -25.166337,10.98505 -26.206414,25.52151 -0.519949,7.267 0.860839,12.73754 4.72344,18.71373 6.660779,10.30553 17.72561,14.19028 29.969384,10.52196 z m 84.100623,-0.25742 c 3.61525,-1.52488 9.93518,-8.64638 10.96516,-12.3559 1.15216,-4.14955 1.11946,-10.31019 -0.0759,-14.29997 -0.52851,-1.76401 -2.63124,-4.97515 -4.67273,-7.13589 -8.36093,-8.84927 -21.93196,-8.33769 -29.6809,1.11886 -3.51737,4.29249 -4.51128,7.37259 -4.48739,13.90627 0.0224,6.13472 1.93953,10.48579 6.58819,14.95264 5.71141,5.48804 13.9202,6.95354 21.36358,3.81399 z m -13.0715,-8.79011 c -3.41392,-2.42534 -4.33787,-4.07771 -4.89084,-8.74668 -0.36457,-3.0782 -0.0714,-4.74842 1.34784,-7.68028 3.14459,-6.49588 9.18127,-8.03783 14.20371,-3.62807 5.59647,4.91376 5.79454,13.4593 0.43615,18.81768 -3.64349,3.64348 -7.15829,4.0354 -11.09686,1.23735 z m 59.80021,9.95749 c 4.40383,-1.26301 8.8103,-4.79299 10.60122,-8.49252 1.47226,-3.04129 1.65388,-4.99459 1.65388,-17.78756 v -14.37111 h -4.46957 -4.46957 l -0.0293,3.45375 c -0.0904,10.66256 -1.06162,23.91234 -1.82083,24.83938 -1.29737,1.58415 -5.12961,3.40017 -7.17515,3.40017 -0.98566,0 -3.01512,-0.93284 -4.50992,-2.07298 l -2.71783,-2.07297 v -13.77368 -13.77367 h -4.87589 -4.87589 v 14.37111 c 0,12.8278 0.17893,14.74072 1.6662,17.81302 3.51319,7.25728 12.55003,10.89696 21.0226,8.46706 z m -94.05225,-13.90598 0.25667,-13.88721 2.27674,-1.95654 c 1.2522,-1.07609 3.73802,-2.1902 5.52403,-2.4758 l 3.2473,-0.51926 -0.24182,-4.14876 c -0.28497,-4.88926 -1.08293,-5.27721 -7.77425,-3.77975 -5.17165,1.15735 -9.53849,4.65868 -11.67453,9.3606 -1.24559,2.74183 -1.48271,5.47689 -1.49773,17.27576 l -0.0179,14.01819 h 4.82238 4.82238 z m 136.48772,-10.12269 c -9.05526,-2.88691 -10.95691,-5.25398 -6.82931,-8.50075 1.84393,-1.45043 2.8468,-1.6548 5.8917,-1.20061 2.01824,0.30104 4.85802,1.04243 6.31063,1.64752 2.53039,1.05405 2.6411,1.28928 2.6411,5.6112 0,5.19815 0.32159,5.10014 -8.01412,2.44264 z"
         id="path1095"
         inkscape:connector-curvature="0" />
      <path
         style="fill:#f29ea3;stroke-width:0.81264883"
         d="M 75.145196,340.74339 C 7.5456759,336.78895 -53.309956,296.38818 -83.926825,235.13882 c -8.764707,-17.53388 -15.500532,-39.56914 -18.189645,-59.50476 -1.77291,-13.14332 -1.77813,-36.02776 -0.0112,-49.12265 C -94.637549,71.000909 -63.435754,21.800478 -16.2778,-8.8606588 27.593114,-37.384627 81.186346,-46.159655 133.24959,-33.343357 c 25.1237,6.184648 52.12971,19.81916 73.54472,37.1304883 8.99093,7.2680357 24.15093,23.0044497 31.07132,32.2527227 21.79038,29.120247 34.50028,61.497461 38.05272,96.935526 l 0.55259,5.51253 -6.47476,-0.53997 c -13.26748,-1.10647 -20.88077,4.61948 -19.26913,14.4923 0.79222,4.85309 3.95813,7.49393 11.88114,9.9106 7.87143,2.40093 10.24369,4.25035 8.83302,6.88623 -1.78945,3.34361 -7.83188,3.05322 -15.71443,-0.75521 -3.71092,-1.79292 -3.96213,-1.67614 -5.75044,2.67333 l -1.25809,3.0599 3.01117,1.93315 c 4.25974,2.73474 10.73607,4.03392 17.34623,3.47975 3.06616,-0.25706 5.57484,-0.27183 5.57484,-0.0328 0,0.239 -0.75412,4.14891 -1.67581,8.68869 -18.89585,93.07064 -103.14523,157.99838 -197.829484,152.45954 z m -131.435939,-190.72954 -0.213174,-29.86484 -2.234785,-0.25714 -2.234784,-0.25714 v 30.12198 30.12199 h 2.447959 2.447959 z m 38.255152,28.69262 c 3.893628,-1.37375 8.2589823,-4.41939 8.2589823,-5.76216 0,-0.51711 -0.6720283,-1.54837 -1.4933963,-2.2917 -1.399634,-1.26666 -1.590956,-1.24201 -3.047434,0.39253 -2.360533,2.64914 -6.254901,3.95766 -11.778564,3.95766 -5.875996,0 -9.966472,-1.92772 -12.768916,-6.01763 -2.004829,-2.92585 -3.544222,-7.39993 -2.801607,-8.14255 0.257122,-0.25712 8.268921,-0.46749 17.804007,-0.46749 h 17.3365057 v -2.69678 c 0,-5.39686 -2.4260088,-11.35288 -6.0424907,-14.83477 -4.189059,-4.03313 -9.167305,-5.61663 -15.77427,-5.01754 -6.293519,0.57068 -10.913029,3.06953 -14.305001,7.73807 -6.601748,9.08634 -5.838126,20.88235 1.848475,28.55404 2.089426,2.08537 5.078877,4.19726 6.643226,4.6931 4.11861,1.30544 12.273728,1.25243 16.120483,-0.10478 z m -23.854405,-23.2295 c -0.794007,-1.28474 2.697555,-7.82471 5.384522,-10.08565 2.504096,-2.10706 6.998775,-3.69484 10.481252,-3.70258 7.225781,-0.0161 14.622316,6.33279 14.622316,12.55116 v 2.07198 h -14.986042 c -9.38047,0 -15.179061,-0.3123 -15.502048,-0.83491 z m 63.141946,23.44876 c 4.733118,-1.41808 7.978586,-5.52096 7.978586,-10.08643 0,-6.87254 -3.007321,-9.89747 -12.695054,-12.76936 -10.2836243,-3.04855 -13.3749324,-7.08055 -8.8770754,-11.5784 1.6802002,-1.68021 2.7733434,-1.99469 6.9336094,-1.99469 2.716417,0 6.291349,0.56508 7.944301,1.25572 2.774172,1.15912 3.084733,1.14718 4.037142,-0.15532 1.503221,-2.05578 1.317905,-2.52927 -1.60933,-4.11185 -1.932438,-1.04475 -4.532337,-1.43194 -9.689407,-1.443 -8.0997358,-0.0174 -10.5683761,1.17872 -13.1485687,6.37069 -2.87661441,5.78844 0.4552377,12.02591 7.7963661,14.59536 1.9037516,0.66633 5.2473306,1.84389 7.4301866,2.6168 5.146976,1.82247 7.001937,3.73618 7.001937,7.22371 0,2.07009 -0.573836,3.23718 -2.234784,4.54516 -1.936372,1.52487 -3.056576,1.72264 -8.389072,1.48112 -5.1298622,-0.23236 -6.736794,-0.66426 -9.6537158,-2.59462 -2.7821277,-1.84116 -3.64191014,-2.09103 -4.19454387,-1.21898 -1.19673103,1.88845 -0.7447114,3.47958 1.44128147,5.07345 4.6888538,3.41878 13.6453492,4.673 19.9281412,2.79064 z m 76.742063,-1.31767 c 4.742897,-2.43142 8.350387,-5.661 11.012717,-9.85906 3.60561,-5.68545 3.24852,-6.56123 -2.67527,-6.56123 -4.84775,0 -5.0565,0.0908 -8.062455,3.50572 -7.107378,8.07441 -18.612137,6.8544 -24.146812,-2.56063 -1.956444,-3.3281 -2.227593,-4.63017 -2.227593,-10.69687 0,-6.0667 0.271149,-7.36878 2.227593,-10.69687 5.468403,-9.3023 16.842602,-10.58853 24.008215,-2.71493 3.248052,3.56897 3.453372,3.66001 8.254282,3.66001 5.66189,0 5.94173,-0.50656 3.22339,-5.83494 -2.11676,-4.1492 -5.6326,-7.46255 -10.896068,-10.26855 -3.531195,-1.88251 -5.020926,-2.16712 -11.377084,-2.17362 -6.593548,-0.007 -7.741878,0.2296 -11.66017,2.39995 -9.624062,5.33078 -14.750917,14.23842 -14.750917,25.62895 0,10.31253 4.254079,18.72878 12.397689,24.52754 5.860702,4.17319 18.142963,4.99185 24.672483,1.64453 z m 79.584657,1.36321 c 4.57934,-1.15308 10.23401,-6.0787 12.60779,-10.98225 2.25389,-4.65594 2.4522,-12.94815 0.425,-17.772 -2.02207,-4.81169 -7.39862,-9.8974 -12.12195,-11.46624 -4.69386,-1.55905 -11.9257,-1.19712 -15.76655,0.78906 -6.66067,3.44437 -11.01984,10.81605 -11.11936,18.80366 -0.08,6.41756 1.93221,11.43067 6.31429,15.73135 5.27661,5.1786 11.94489,6.83931 19.66078,4.89642 z m -11.74543,-10.9353 c -4.62914,-3.89518 -5.22647,-12.59413 -1.19388,-17.38658 5.47111,-6.50205 14.48686,-3.95882 16.41686,4.63098 1.11858,4.97842 -0.2151,10.25352 -3.23473,12.79437 -3.39405,2.85591 -8.568,2.83917 -11.98825,-0.0388 z m 62.08994,10.94066 c 4.4753,-1.22948 9.63137,-6.71147 10.84477,-11.5303 0.51625,-2.05022 0.93864,-9.41681 0.93864,-16.3702 v -12.64252 h -5.28222 -5.28222 v 12.94002 c 0,12.73558 -0.0332,12.97954 -2.10386,15.44033 -1.67481,1.99041 -2.73848,2.5003 -5.21576,2.5003 -7.31035,0 -8.12071,-1.82058 -8.12071,-18.24424 v -12.63641 h -5.28221 -5.28222 v 11.67249 c 0,6.41987 0.3729,13.63878 0.82867,16.04202 1.99975,10.54471 12.26386,16.04091 23.95712,12.82851 z m -94.67359,-14.00147 0.40632,-13.68457 2.2801,-1.95892 c 1.45451,-1.24963 3.29357,-1.95893 5.07906,-1.95893 h 2.79895 v -4.87589 -4.87589 h -3.55474 c -4.39723,0 -9.98266,1.90658 -12.57914,4.29387 -4.2684,3.92452 -4.95778,7.07778 -4.97714,22.76548 l -0.0179,14.46329 5.07906,-0.24193 5.07905,-0.24195 z m 136.2356,-10.28875 c -7.9527,-2.81767 -9.30752,-4.00462 -7.95622,-6.9704 0.93793,-2.05853 1.21108,-2.14012 6.11865,-1.82763 7.16267,0.45609 9.44081,2.08186 9.44081,6.73736 0,1.97462 -0.27426,3.75501 -0.60948,3.95643 -0.33522,0.20141 -3.48241,-0.65168 -6.99376,-1.89576 z"
         id="path1093"
         inkscape:connector-curvature="0" />
      <path
         style="fill:#ee7b82;stroke-width:0.81264883"
         d="M 57.607462,338.77996 C 42.617755,336.30645 34.970705,334.34811 22.060885,329.67683 -4.2434534,320.1589 -26.814678,305.83062 -46.834379,285.94194 -58.126357,274.72386 -63.333375,268.49483 -71.300227,256.67401 -76.430474,249.062 -83.489348,236.73026 -85.795903,231.35027 -97.192734,204.76746 -101.52824,187.68521 -103.20774,162.74614 -108.05918,90.706847 -69.779574,20.736904 -5.966017,-14.998572 42.556149,-42.170893 102.14244,-46.610205 153.30035,-26.864273 c 45.38676,17.5183824 81.05083,49.52762 102.554,92.044325 10.88373,21.519632 17.64235,44.402218 19.98685,67.669238 l 0.54276,5.38643 -7.18293,-0.40955 c -6.16101,-0.35129 -7.76982,-0.15709 -11.308,1.365 -6.95055,2.99005 -9.71513,10.83336 -5.97864,16.9619 1.50103,2.46198 8.44874,6.62997 11.08847,6.65206 0.52165,0.004 2.64891,0.73685 4.72725,1.62773 3.33729,1.43053 3.7487,1.88153 3.52113,3.86008 -0.25466,2.21409 -0.32421,2.23959 -5.94621,2.17988 -4.16267,-0.0442 -6.60629,-0.53466 -9.10993,-1.82846 -1.88176,-0.97242 -3.61137,-1.76804 -3.84357,-1.76804 -0.5678,0 -3.70581,6.20386 -3.70581,7.32642 0,0.48949 2.10273,1.8754 4.67274,3.0798 4.00402,1.87645 5.83569,2.20835 12.79921,2.31917 l 8.12649,0.12933 -0.25703,2.30861 c -0.64104,5.75781 -4.66327,21.78437 -7.60838,30.31558 -3.91493,11.34054 -12.73729,29.88211 -18.62884,39.15142 -26.44346,41.60414 -66.98114,71.36243 -113.28135,83.15869 -18.61436,4.74252 -24.1399,5.44321 -45.508334,5.77086 -17.636333,0.27042 -20.637997,0.11186 -31.352764,-1.65624 z M -16.307494,178.12897 c 6.237348,-2.68762 7.5926516,-4.61408 5.377403,-7.64357 -1.136562,-1.55433 -1.18125,-1.55204 -3.047433,0.15594 -3.791584,3.47017 -7.084014,4.55008 -12.874714,4.22288 -4.426498,-0.25012 -6.00914,-0.73332 -8.416832,-2.56975 -3.126301,-2.38455 -6.200844,-7.47255 -6.200844,-10.26167 0,-1.61739 0.427291,-1.65767 17.584819,-1.65767 h 17.5848193 l -0.4290461,-4.73156 C -7.7393712,144.50452 -14.866643,137.6786 -25.528978,137.6388 c -6.369956,-0.0238 -10.398134,1.28702 -14.349826,4.66952 -5.257131,4.49991 -6.853352,8.32753 -6.856554,16.44151 -0.0024,5.16437 0.377345,7.62528 1.503368,9.75178 1.925709,3.63673 5.95982,7.92665 8.903218,9.46778 5.357428,2.80508 13.726866,2.87179 20.021278,0.15958 z m -24.843187,-24.42906 c 1.619146,-8.09572 10.724665,-13.48101 19.01799,-11.24785 4.31094,1.16082 7.62532,3.9878 9.469131,8.07664 2.578112,5.71722 2.415534,5.78318 -14.254755,5.78318 h -14.754761 z m -14.946912,-3.94071 v -30.11949 l -2.641109,0.25465 -2.641109,0.25465 -0.213174,29.86484 -0.213175,29.86485 h 2.854283 2.854284 z m 79.37086,28.54544 c 7.153886,-3.24813 8.598215,-13.25373 2.637257,-18.26954 -1.36217,-1.1462 -5.009956,-2.85345 -8.106188,-3.7939 -7.494232,-2.27631 -10.8546649,-4.58736 -11.1606028,-7.67542 -0.4044715,-4.08255 1.3788132,-5.52879 7.2805858,-5.90459 3.594972,-0.22891 6.175685,0.0735 8.337721,0.97678 3.429873,1.43309 5.343198,0.7252 5.343198,-1.97688 0,-1.98177 -6.275819,-4.04013 -12.31805,-4.04013 -9.7340295,0 -15.11500011,4.53989 -14.2697072,12.03927 0.5764281,5.11407 4.0538663,8.10795 12.4908032,10.75391 9.256468,2.90297 12.213169,6.018 10.341558,10.89534 -1.414668,3.68656 -11.010198,4.88659 -17.0700551,2.13479 -1.8444285,-0.83755 -3.6030412,-1.92659 -3.9080446,-2.42009 -0.9287926,-1.50282 -2.58599486,-1.00632 -3.525807,1.05634 -0.9704409,2.12989 -0.12342511,3.31623 3.8323788,5.36773 5.4963993,2.85046 14.8272659,3.24811 20.0949529,0.85639 z m 72.85132,0.2803 c 4.874633,-1.66095 11.468953,-7.59653 14.009453,-12.60998 1.09268,-2.15628 1.98668,-4.11551 1.98668,-4.35385 0,-0.23833 -2.65127,-0.43102 -5.89171,-0.4282 -5.6821,0.005 -5.94061,0.0911 -7.266304,2.42099 -4.446684,7.81498 -16.101897,8.41849 -22.487212,1.16439 -7.037271,-7.99476 -6.744685,-19.62413 0.685981,-27.26569 2.77817,-2.85701 4.490876,-3.91076 7.0345,-4.32798 5.28199,-0.86638 9.941678,0.79484 13.801483,4.92037 3.306222,3.53383 3.417012,3.57921 8.735972,3.57921 2.96301,0 5.38729,-0.195 5.38729,-0.43333 0,-1.07588 -4.17065,-8.50875 -5.98263,-10.66216 -1.10518,-1.31344 -3.95955,-3.4683 -6.343044,-4.78858 -3.947003,-2.18636 -5.022381,-2.40053 -12.053793,-2.40053 -6.426281,0 -8.359597,0.31496 -11.535445,1.87927 -7.891633,3.88712 -13.548709,11.72288 -15.25441,21.12926 -1.888612,10.41509 2.425619,22.36661 10.219839,28.31155 6.323595,4.82324 17.198193,6.50771 24.95335,3.86526 z m 84.671433,-0.5454 c 3.72676,-1.94912 7.78458,-6.30135 9.6504,-10.35057 2.37468,-5.15358 2.25601,-13.65317 -0.26386,-18.89916 -4.85504,-10.10742 -17.42826,-14.15834 -27.72948,-8.93407 -15.85791,8.04237 -14.41103,32.6826 2.285,38.91326 3.81053,1.42202 12.71792,1.01738 16.05794,-0.72946 z m -13.60813,-9.18474 c -6.675,-3.62181 -6.56701,-16.76737 0.16635,-20.24932 4.66561,-2.41269 10.33143,-0.78758 12.6089,3.61656 0.678,1.3111 1.23273,4.24861 1.23273,6.52779 0,2.27918 -0.55473,5.21668 -1.23273,6.52779 -2.27639,4.40207 -8.19873,6.06037 -12.77525,3.57718 z m 63.43179,8.91372 c 3.14385,-1.56665 4.80717,-3.08422 6.45758,-5.89171 2.16869,-3.68914 2.22954,-4.14384 2.49071,-18.61236 l 0.2677,-14.83084 h -5.26324 -5.26325 l -0.28667,13.47935 -0.28668,13.47936 -2.2801,1.96097 c -2.84653,2.44812 -6.89424,2.56241 -9.80004,0.27669 l -2.14122,-1.68428 v -13.75604 -13.75605 h -5.75308 -5.75308 l 0.2677,14.83084 c 0.26229,14.53108 0.31339,14.90856 2.52799,18.67598 3.26369,5.55211 7.68611,7.77621 15.66159,7.87644 3.75398,0.0472 5.92275,-0.43811 9.15409,-2.04835 z m -97.22044,-12.59105 c 0.24919,-13.48365 0.31282,-13.93398 2.18254,-15.44629 1.05922,-0.85675 3.34479,-1.78462 5.07905,-2.06195 l 3.15319,-0.50421 v -4.77203 -4.77203 h -4.37677 c -6.56318,0 -12.39381,3.29414 -15.08425,8.52217 -1.93512,3.76029 -2.07956,4.88967 -2.36147,18.4641 l -0.30026,14.45882 h 5.72564 5.72565 z m 139.21963,-9.71646 c -0.89392,-0.40747 -3.69412,-1.49339 -6.22268,-2.41314 -5.34557,-1.94443 -6.50836,-3.7551 -3.81305,-5.93764 2.04937,-1.65948 6.877,-1.37273 11.86419,0.70471 2.1397,0.8913 2.6411,1.55826 2.6411,3.51312 0,4.7216 -1.04942,5.69198 -4.46956,4.13295 z"
         id="path1091"
         inkscape:connector-curvature="0" />
      <path
         style="fill:#ea5a63;stroke-width:0.81264883"
         d="m 66.206058,340.01586 c -1.787827,-0.38092 -6.358977,-1.11675 -10.15811,-1.63519 C 40.513377,336.26078 21.228618,330.19981 4.4447461,322.16241 -54.374704,293.99515 -94.771859,237.3024 -102.44245,172.15853 c -1.18469,-10.06114 -1.19725,-32.47924 -0.0237,-42.25774 5.305458,-44.206402 25.334795,-84.724739 57.046196,-115.401593 15.427659,-14.92434721 30.107551,-25.108142 49.8646701,-34.592329 26.8095459,-12.869625 52.0446409,-18.676552 81.2648849,-18.700117 25.195219,-0.02032 43.886379,3.254727 66.230879,11.604909 26.85928,10.037362 48.78202,24.084492 68.74865,44.051124 21.50115,21.501145 35.94362,44.892879 45.82985,74.228267 4.78891,14.210139 8.38667,31.037579 9.07951,42.466659 0.24703,4.07519 0.12752,4.45044 -1.35436,4.25266 -0.89391,-0.1193 -4.19335,-0.30215 -7.33208,-0.40632 -10.73996,-0.35646 -17.08417,4.98882 -16.42052,13.83503 0.48303,6.43851 2.08555,7.83891 14.20398,12.41247 5.841,2.20442 6.70435,2.78227 6.70435,4.48732 0,1.42194 -0.56874,2.09982 -2.07998,2.47912 -3.34607,0.8398 -9.00326,-0.13862 -13.40941,-2.3192 l -4.09297,-2.0256 -1.96637,3.88044 c -2.20611,4.35356 -2.23824,4.28902 3.67046,7.37517 3.13638,1.63816 4.8422,1.91242 11.98385,1.9268 9.78998,0.0197 9.28656,-0.8576 6.72381,11.71805 -2.20401,10.81525 -8.9316,30.19026 -14.56061,41.93355 -24.30946,50.71464 -70.04034,88.14309 -124.15553,101.61512 -18.99662,4.72922 -24.32353,5.4054 -44.959238,5.707 -10.503487,0.15351 -20.560016,-0.0325 -22.347844,-0.41346 z M -57.38303,180.19808 c 1.140009,-0.43747 1.285437,-3.88519 1.285437,-30.47433 v -29.98107 h -2.844271 -2.844271 v 29.93257 c 0,16.46291 0.243795,30.17636 0.541766,30.47433 0.674517,0.67452 2.180661,0.69343 3.861339,0.0485 z m 41.228436,-2.09634 c 2.079073,-0.88274 4.559383,-2.43447 5.511807,-3.44828 1.6892371,-1.79811 1.6950963,-1.88845 0.239033,-3.68662 l -1.492649,-1.84334 -3.882284,2.73649 c -3.554006,2.5051 -4.386142,2.73649 -9.84086,2.73649 -5.32281,0 -6.332859,-0.26305 -9.466498,-2.46546 -4.213755,-2.96154 -7.600908,-9.67615 -5.53899,-10.98036 0.652711,-0.41286 8.779175,-0.75625 18.058812,-0.76309 l 16.8720695,-0.0124 -0.4878575,-3.45376 c -1.4466856,-10.2419 -5.135266,-15.49782 -12.920532,-18.41067 -5.438814,-2.03492 -7.700278,-2.10915 -13.329163,-0.43755 -8.173948,2.4274 -13.804605,9.66716 -14.528057,18.67985 -1.419689,17.68629 14.099726,28.44162 30.805169,21.34874 z m -25.31532,-23.36225 c 0,-3.25003 4.27572,-9.02719 8.126489,-10.98016 5.468484,-2.7734 12.42497,-1.9926 16.530561,1.85541 2.267632,2.12535 5.410958,7.37655 5.410958,9.03947 0,0.55448 -5.169113,0.84502 -15.034004,0.84502 -8.782995,0 -15.034004,-0.31589 -15.034004,-0.75974 z m 65.090938,23.44484 c 7.420866,-3.71285 8.25804,-13.87457 1.546268,-18.7688 -1.117392,-0.81481 -5.094667,-2.56287 -8.838394,-3.8846 -3.743727,-1.32171 -7.4920693,-3.0233 -8.3296502,-3.78131 -1.5323226,-1.38673 -2.0101601,-4.82881 -0.9009513,-6.49001 2.0491347,-3.06885 9.9154455,-3.66156 15.4219785,-1.16199 3.371144,1.53025 3.466053,1.53104 4.266406,0.0356 0.450208,-0.84122 0.818557,-2.07182 0.818557,-2.73468 0,-1.82305 -7.042212,-4.1545 -12.596057,-4.17015 -8.8506398,-0.0249 -14.21207427,4.37262 -14.21831542,11.66212 -0.004063,5.15739 4.10207262,9.08478 12.01082842,11.48699 7.736872,2.35 11.077005,4.62877 11.38803,7.76934 0.176272,1.77993 -0.335299,2.9788 -1.896162,4.44363 -1.868158,1.75321 -2.871576,2.00329 -7.961569,1.98422 -4.9343797,-0.0185 -6.3491039,-0.35986 -9.2616129,-2.23479 -4.12428233,-2.65501 -4.77024065,-2.71331 -5.93565223,-0.53572 -1.13524607,2.12123 -0.0764703,3.51048 4.42587253,5.80741 6.1359295,3.13032 14.4728776,3.36836 20.0604236,0.57277 z m 71.462121,0.88734 c 6.833065,-1.8983 14.678125,-9.48152 16.609815,-16.05544 0.52278,-1.77909 0.37598,-1.82846 -5.43713,-1.82846 -5.74313,0 -6.0288,0.0921 -7.379305,2.37829 -4.054118,6.86308 -14.397326,8.23998 -20.885742,2.78034 -4.282172,-3.60322 -6.058508,-7.9749 -6.058508,-14.91041 0,-4.69985 0.406032,-6.86198 1.773988,-9.4464 3.323018,-6.27806 9.747869,-9.84415 15.753409,-8.74388 3.486532,0.63877 8.276178,3.82368 9.671732,6.43128 0.993756,1.85685 1.524606,2.00721 7.086536,2.00721 5.86034,0 5.99805,-0.0462 5.44826,-1.82846 -1.82983,-5.93185 -6.38472,-11.29666 -12.068384,-14.21435 -3.256162,-1.67153 -5.654354,-2.20061 -11.269579,-2.48623 -6.728033,-0.34223 -7.429496,-0.21696 -12.350117,2.20545 -10.179442,5.01133 -15.300187,13.73836 -15.300187,26.07538 0,8.81698 2.135512,14.67731 7.419273,20.3602 6.417244,6.90199 17.5381,9.9002 26.985939,7.27548 z m 84.266625,-0.43709 c 10.20009,-4.26187 15.34245,-15.47264 12.13114,-26.44687 -3.20585,-10.95557 -14.56546,-17.32154 -25.32668,-14.19317 -14.31359,4.16107 -19.76144,23.10875 -10.02824,34.87831 5.12201,6.19362 15.83122,8.85054 23.22378,5.76173 z m -11.99127,-9.84553 c -6.50724,-4.33282 -7.11116,-13.3928 -1.25152,-18.7752 3.98197,-3.65766 7.54935,-3.61455 11.64707,0.14072 2.93748,2.69201 3.0355,2.96097 3.0355,8.32965 0,4.27965 -0.37153,6.04597 -1.6253,7.72705 -2.96333,3.97327 -8.04388,5.0826 -11.80575,2.57778 z m 61.0529,10.1527 c 4.51577,-1.53166 7.14751,-3.83342 9.46322,-8.27668 2.0794,-3.98983 2.20152,-4.88095 2.49591,-18.21327 l 0.30953,-14.01819 h -6.17528 -6.17528 v 13.44564 c 0,13.19209 -0.0376,13.48326 -1.99468,15.44033 -1.37717,1.37717 -2.89808,1.99468 -4.91283,1.99468 -2.01475,0 -3.53567,-0.61751 -4.91283,-1.99468 -1.95707,-1.95707 -1.99469,-2.24824 -1.99469,-15.44033 v -13.44564 h -5.60044 c -6.78906,0 -6.41409,-0.96381 -6.1652,15.84665 0.19002,12.83445 0.77684,15.46054 4.51727,20.21515 3.75037,4.76725 13.90427,6.90236 21.1453,4.44634 z m -95.16181,-12.51211 c 0,-16.2454 0.8531,-18.24425 7.78663,-18.24425 h 2.7778 v -5.30772 c 0,-6.31285 -0.49074,-6.68033 -7.15386,-5.35681 -6.62899,1.31674 -10.72075,4.44452 -12.93423,9.88702 -1.61004,3.95877 -1.80617,5.89453 -1.82846,18.0463 l -0.025,13.61187 h 5.68855 5.68854 z m 136.22319,-12.24505 c -3.07121,-1.04538 -6.08817,-2.31908 -6.70435,-2.83047 -1.33064,-1.10434 -1.47693,-3.66506 -0.25261,-4.42173 1.47221,-0.90988 5.90237,-0.73576 9.92322,0.39001 l 3.83675,1.07422 v 3.95763 c 0,2.1767 -0.27427,3.90665 -0.60949,3.84432 -0.33522,-0.0623 -3.1223,-0.96861 -6.19352,-2.01398 z"
         id="path1089"
         inkscape:connector-curvature="0" />
      <path
         style="fill:#e73a44;stroke-width:0.81264883"
         d="m 65.799734,339.93324 c -2.458263,-0.42037 -8.126488,-1.35473 -12.596057,-2.07637 -23.620842,-3.81375 -50.5730232,-14.68011 -72.325747,-29.15972 -45.77751,-30.4716 -76.495931,-80.68445 -83.26782,-136.11098 -1.23478,-10.10645 -1.03545,-35.02997 0.36542,-45.69118 3.681166,-28.015074 14.930186,-57.795313 30.619801,-81.061726 9.561268,-14.178578 12.198006,-17.377522 24.182762,-29.339017 C -31.230685,0.53406065 -17.247265,-9.4455246 2.8194484,-19.218905 20.91713,-28.03328 36.012708,-32.962143 56.454272,-36.731229 c 9.80686,-1.808223 39.152406,-2.525626 49.779708,-1.216953 32.25174,3.97156 60.11116,14.1224 85.93265,31.3103632 35.14892,23.3967258 60.944,57.4527018 74.48895,98.3441178 5.14439,15.530571 8.80756,33.256411 8.80756,42.619161 v 3.21638 l -6.70436,-0.43829 c -6.22,-0.40663 -7.02725,-0.27167 -11.17392,1.86801 -3.59413,1.85459 -4.84518,3.06361 -6.38728,6.17271 -4.13932,8.34544 0.40277,14.60569 13.70112,18.8839 5.31273,1.70915 6.50119,2.5423 6.50119,4.55746 0,3.24532 -8.63683,3.00316 -15.4801,-0.43402 l -3.95395,-1.98595 -1.56739,2.59011 c -3.18811,5.2683 -3.06099,5.88923 1.67005,8.1579 5.99996,2.87714 13.30545,4.15458 18.01506,3.15012 3.46528,-0.73907 3.75428,-0.67737 3.75428,0.80158 0,3.93028 -3.61743,18.71761 -7.26386,29.69318 -15.58927,46.92293 -47.6777,84.94735 -91.20887,108.08146 -13.60661,7.23108 -32.53224,14.17066 -46.99141,17.23065 -17.75199,3.75685 -21.81178,4.21768 -39.819798,4.51996 -10.05653,0.16881 -20.295905,-0.037 -22.754168,-0.45738 z M -56.290955,150.10456 c 0.193618,-27.43905 0.09095,-30.22728 -1.130295,-30.69592 -0.738791,-0.2835 -2.023124,-0.29968 -2.854071,-0.0359 -1.437265,0.45615 -1.510814,1.96287 -1.510814,30.95055 v 30.47106 l 2.641109,-0.25466 2.641109,-0.25465 z m 39.513263,28.54519 c 3.962467,-1.65977 7.8137321,-4.47189 7.8137321,-5.70544 0,-0.51711 -0.7270363,-1.59816 -1.6156431,-2.40234 -1.563171,-1.41465 -1.714917,-1.39337 -4.672731,0.65508 -4.250373,2.94363 -10.273954,4.23415 -14.434171,3.09244 -6.437699,-1.76673 -9.344706,-4.63636 -11.305571,-11.16021 -0.460122,-1.53081 -0.107831,-1.7713 3.273626,-2.23478 2.08407,-0.28566 10.188731,-0.51937 18.010346,-0.51937 h 14.2211272 l -0.4886539,-4.12597 C -7.8520612,140.40569 -21.85769,132.4168 -35.66292,139.31536 c -7.800291,3.89784 -11.495536,10.14507 -11.495536,19.43447 0,10.70228 5.198751,17.8511 15.440328,21.23203 2.909657,0.96053 11.240315,0.21775 14.940436,-1.33211 z m -24.692222,-23.58294 c 0,-1.15413 2.661108,-6.59384 3.891077,-7.95396 4.284,-4.73733 13.916034,-6.1601 18.871356,-2.78754 3.324579,2.26269 5.4538,5.08466 6.438153,8.53281 l 0.753968,2.64111 h -14.977281 c -8.237496,0 -14.977273,-0.19459 -14.977273,-0.43242 z m 64.819944,23.44621 c 4.114872,-2.01813 6.693155,-6.08957 6.693155,-10.56938 0,-5.55677 -4.025562,-9.32992 -13.408706,-12.56794 -8.4013103,-2.8992 -10.1581108,-4.14273 -10.1581108,-7.19031 0,-3.20413 2.5929187,-5.09396 7.5535788,-5.50533 3.847876,-0.3191 6.584805,0.37725 11.292837,2.8732 0.308993,0.16382 1.146396,-0.83261 1.860893,-2.21429 l 1.299076,-2.51214 -4.29884,-2.00132 c -10.882058,-5.06614 -23.39608672,-0.19688 -23.39608672,9.10351 0,6.56653 2.89001492,9.61932 11.78340872,12.44707 6.301823,2.00374 10.919326,4.79336 11.452863,6.91916 1.0051,4.00463 -3.740883,7.68678 -9.928554,7.70302 -2.495945,0.007 -8.1503475,-2.12231 -10.9702552,-4.13025 -1.3370674,-0.95209 -2.54329835,-1.59974 -2.68049786,-1.43925 -0.1371995,0.1605 -0.69601748,1.14913 -1.2418087,2.19695 -3.23500874,6.2106 14.95072376,11.3976 24.14704776,6.8873 z m 75.420152,-1.0369 c 5.014608,-2.28898 9.253068,-6.51026 12.030368,-11.98158 2.05998,-4.05819 1.80706,-4.30677 -4.38204,-4.30677 -5.6767,0 -5.71762,0.016 -9.142302,3.57747 -5.228095,5.43687 -12.162988,6.46109 -17.972729,2.6544 -5.153542,-3.37673 -8.556363,-12.3792 -7.372748,-19.50526 0.75027,-4.5171 2.045648,-6.84072 5.886097,-10.55834 6.038427,-5.84529 13.244729,-5.56777 19.566008,0.75351 3.541284,3.54129 3.627564,3.57465 9.244364,3.57465 h 5.66972 l -0.54122,-2.15638 c -0.29767,-1.186 -1.6155,-3.7178 -2.92853,-5.6262 -5.13065,-7.45716 -12.199009,-11.1115 -21.492242,-11.1115 -7.756782,0 -12.910373,2.08835 -18.330879,7.4281 -6.174067,6.08208 -8.367349,11.64376 -8.367349,21.21777 0,8.72825 2.247421,14.94316 7.392983,20.44418 8.070879,8.62842 19.528001,10.71406 30.740499,5.59595 z m 131.757508,0.69664 c 4.09943,-1.9845 7.956,-6.75495 9.20213,-11.38273 0.4571,-1.69752 0.73029,-8.86358 0.60709,-15.92457 l -0.224,-12.83818 h -5.68854 -5.68854 l -0.40633,13.99181 c -0.45577,15.69447 -0.67303,16.29146 -6.19878,17.03261 -2.40813,0.32301 -3.65794,0.0323 -5.19086,-1.20734 -1.97764,-1.59928 -2.0274,-1.92187 -2.42539,-15.72493 l -0.40632,-14.09215 h -5.68854 -5.68855 l 0.0258,14.62768 c 0.0276,15.61721 0.42398,17.47481 4.74193,22.22189 5.22292,5.74199 15.06587,7.15073 23.02885,3.29591 z m -49.50797,-0.24524 c 6.74317,-3.43254 10.83178,-9.75366 11.40126,-17.62666 1.17438,-16.23556 -14.69199,-28.15783 -28.69706,-21.56348 -5.06205,2.38349 -7.85753,4.9794 -10.28264,9.54854 -2.64128,4.97641 -2.71667,15.82637 -0.1433,20.62202 3.86899,7.21014 10.0502,10.88947 18.37628,10.93837 4.2579,0.025 6.38471,-0.41166 9.34546,-1.91879 z m -12.48619,-8.55011 c -0.93037,-0.39718 -2.6674,-1.88186 -3.86008,-3.29927 -4.25283,-5.0542 -2.32885,-14.46185 3.58282,-17.51889 10.17431,-5.26134 17.93773,11.3356 9.06035,19.36953 -1.90349,1.72263 -6.40294,2.46475 -8.78309,1.44863 z m -35.28394,-2.5272 c 0,-16.6801 0.65562,-18.12831 8.53281,-18.8483 2.43593,-0.22265 2.43795,-0.22721 2.43795,-5.50506 v -5.28222 l -4.06325,-0.23544 c -5.55988,-0.32218 -12.07683,2.97929 -15.43529,7.81948 l -2.44298,3.52079 -0.25242,15.3733 -0.25241,15.37329 h 5.73779 5.7378 z m 136.17596,-12.88639 c -6.68992,-2.30547 -8.42271,-3.73738 -7.48378,-6.18421 0.47254,-1.23141 1.29242,-1.37995 5.67502,-1.02816 7.3489,0.5899 8.659,1.48742 8.659,5.9321 0,1.99558 -0.0914,3.59968 -0.20317,3.56464 -0.11174,-0.035 -3.10292,-1.06299 -6.64707,-2.28437 z"
         id="path1087"
         inkscape:connector-curvature="0" />
      <path
         style="fill:#e52934;stroke-width:0.81264883"
         d="M 61.73649,339.11154 C 4.6038952,330.69894 -41.152152,301.80753 -72.775029,254.1779 c -6.040825,-9.09855 -14.417832,-25.81161 -18.707572,-37.32368 -3.232558,-8.67499 -8.493125,-28.75024 -10.265539,-39.17514 -1.66791,-9.81017 -1.40574,-45.61957 0.40631,-55.49845 3.683447,-20.08126 9.440704,-37.978663 17.645432,-54.853796 9.524324,-19.589217 20.195688,-34.43888 36.53266,-50.836762 27.496104,-27.598625 61.396856,-45.150318 101.586388,-52.595091 10.655704,-1.97388 13.611064,-2.182294 30.880656,-2.177728 26.719164,0.0071 41.624324,2.414235 63.792934,10.302498 58.7557,20.9070576 101.70048,66.147915 119.41078,125.795189 3.37468,11.36575 6.95612,30.28876 6.95612,36.75363 v 2.76103 l -6.8527,-0.35968 c -5.88271,-0.30876 -7.38121,-0.10382 -10.58653,1.44785 -5.53355,2.67874 -8.15921,6.55008 -8.15921,12.03013 0,4.24898 0.15173,4.55801 3.9072,7.95806 2.9567,2.67688 5.40696,3.99019 10.0722,5.39862 6.95647,2.10013 8.9743,4.02064 6.33682,6.03119 -2.21195,1.68618 -8.49242,0.92034 -13.73672,-1.67504 -2.2246,-1.10093 -4.34601,-1.8155 -4.71424,-1.58792 -0.86843,0.53672 -3.89688,6.47097 -3.89688,7.63594 0,0.49279 2.46842,2.05417 5.48538,3.46973 4.90755,2.30264 6.2772,2.57548 13.00238,2.59015 5.08711,0.0111 7.517,0.31666 7.517,0.94528 0,4.10923 -5.95152,26.41041 -9.83665,36.85928 -3.09409,8.32142 -10.7809,23.93444 -15.60368,31.69331 -23.02787,37.04715 -55.14738,63.51714 -95.64435,78.82139 -27.6223,10.43877 -63.455611,14.58194 -91.01667,10.52365 z M -56.097593,149.7592 v -30.93214 l -2.641109,0.25465 -2.641109,0.25465 -0.212934,30.67749 -0.212934,30.6775 h 2.854043 2.854043 z m 40.422568,28.47079 c 5.8723302,-2.93444 7.3646786,-4.44727 6.2033059,-6.28843 -1.8005369,-2.85444 -3.2101169,-2.97344 -6.4001059,-0.54031 -2.534424,1.9331 -4.038604,2.39696 -8.610412,2.65529 -7.112002,0.40186 -11.794192,-1.63849 -14.40013,-6.27513 -2.998836,-5.33571 -2.556959,-6.28036 3.220203,-6.88419 2.747305,-0.28715 10.609683,-0.52209 17.47195,-0.52209 h 12.4768495 v -2.69678 c 0,-7.68002 -5.0361145,-15.97843 -11.6358315,-19.1733 -4.548054,-2.20168 -12.607369,-2.27659 -17.266334,-0.1605 -8.837052,4.01378 -12.964699,11.37644 -12.350759,22.03058 0.233369,4.04973 0.929809,7.21947 2.075514,9.4464 5.191241,10.09028 18.300088,13.86308 29.21575,8.40846 z m -24.927467,-25.37187 c 1.099887,-3.85288 3.269058,-6.39717 7.247803,-8.50117 8.449891,-4.46841 19.104075,-0.0538 20.84203,8.63594 l 0.501266,2.50634 H -26.683922 -41.35646 Z m 63.26199,26.24356 c 5.04212,-2.5723 7.383687,-5.9627 7.383687,-10.69101 0,-2.3679 -0.550188,-4.86918 -1.334256,-6.06582 -1.768007,-2.69831 -6.847379,-5.59948 -13.313374,-7.60414 -2.894249,-0.89731 -6.0850739,-2.21153 -7.0907269,-2.9205 -3.2715048,-2.30635 -1.9919811,-6.91548 2.3388929,-8.42524 3.758923,-1.31036 6.581009,-1.10986 10.992059,0.78094 l 3.917073,1.67905 1.459233,-1.80207 c 1.963059,-2.42427 1.548413,-3.2663 -2.667081,-5.41612 -7.302162,-3.72397 -18.8925662,-1.75409 -22.1527915,3.76504 -1.77536955,3.00545 -1.8461919,9.66708 -0.1288455,12.11893 1.4479046,2.06717 6.8822093,4.9749 13.102996,7.01103 6.05312,1.98124 8.37563,4.03717 8.37563,7.41428 0,3.58471 -2.987923,5.24411 -9.442557,5.24411 -3.662031,0 -5.5632721,-0.51691 -8.9671819,-2.43795 -2.3758926,-1.34087 -4.46383132,-2.43795 -4.63985106,-2.43795 -0.17602787,0 -0.7947787,1.14611 -1.37500997,2.54692 -0.94346907,2.27774 -0.88947667,2.67362 0.51089607,3.74578 6.60478726,5.05682 16.90547686,6.61984 23.03120786,3.49472 z m 73.792912,-0.23879 c 5.58051,-2.17764 12.53759,-8.6394 14.84813,-13.79101 l 1.55983,-3.47778 -6.18099,-0.23955 -6.18099,-0.23956 -2.388461,2.89762 c -3.211978,3.89668 -6.204923,5.30165 -11.293844,5.30165 -5.086321,0 -8.461617,-1.99446 -11.620871,-6.86674 -4.159161,-6.41439 -4.637933,-13.37424 -1.358602,-19.75011 4.544438,-8.83557 13.981387,-11.85085 21.054309,-6.72725 1.831662,1.32684 3.727856,3.1553 4.213771,4.06324 0.77469,1.44753 1.681798,1.6508 7.366978,1.6508 h 6.48351 l -1.22507,-2.932 c -2.14738,-5.13939 -6.6758,-10.49049 -10.74069,-12.69194 -7.822493,-4.23647 -18.66782,-4.50435 -26.206365,-0.64729 -11.540516,5.90465 -17.865565,23.17117 -13.119509,35.81449 3.683274,9.8121 8.334194,14.63155 17.195146,17.81821 5.927526,2.13171 11.819352,2.07051 17.593718,-0.18278 z m 82.84762,0.1528 c 4.97853,-2.12409 8.77993,-5.7469 11.45873,-10.9204 4.85503,-9.37641 1.38551,-21.8164 -7.78227,-27.90348 -3.59908,-2.38965 -5.30016,-2.96902 -9.50302,-3.23664 -6.15092,-0.39165 -9.6552,0.6541 -14.44359,4.31031 -3.8853,2.96664 -7.50155,9.41157 -8.38667,14.9468 -0.63507,3.97149 1.25374,10.63847 4.43012,15.63715 1.81585,2.85759 3.60131,4.36165 7.47633,6.29803 6.11729,3.05684 11.02447,3.3112 16.75037,0.86823 z m -9.88757,-9.49374 c -6.13745,-1.4179 -9.05738,-11.40482 -5.06613,-17.32743 1.04838,-1.55571 3.16842,-3.23751 4.92282,-3.90524 2.73816,-1.04215 3.38863,-1.02631 5.83901,0.14219 3.49382,1.66609 5.37117,4.5238 5.86808,8.93246 0.86092,7.63809 -4.90193,13.69708 -11.56378,12.15802 z m 60.48713,9.16575 c 4.6577,-2.36024 8.70948,-6.95253 9.84738,-11.16106 0.4471,-1.65363 0.71235,-8.96747 0.58943,-16.25298 l -0.22349,-13.24638 h -5.68854 -5.68854 l -0.23267,13.40871 c -0.2033,11.71593 -0.42827,13.66518 -1.78204,15.44033 -1.24999,1.63905 -2.25935,2.03162 -5.22369,2.03162 -6.27637,0 -6.53622,-0.65136 -6.83258,-17.1271 l -0.25595,-14.22896 -5.83892,0.2377 -5.83892,0.2377 -0.22443,12.92441 c -0.27703,15.95335 0.63988,19.96392 5.58576,24.43223 4.43745,4.00897 7.50013,5.23735 13.15345,5.27562 3.43114,0.0232 5.76705,-0.50904 8.65375,-1.97184 z m -96.58041,-13.03036 c 0.26175,-7.59826 0.53602,-13.8922 0.60948,-13.98653 1.83694,-2.35858 4.17486,-3.48542 7.23146,-3.48542 h 3.54081 l -0.24029,-5.48538 -0.24029,-5.48538 -4.19666,-0.24321 c -6.93093,-0.40167 -13.34596,3.39789 -16.70473,9.89406 -1.5195,2.93886 -1.77815,5.08878 -2.10059,17.46028 -0.29709,11.39873 -0.15251,14.24879 0.75269,14.83782 0.61623,0.401 3.31457,0.63452 5.99631,0.51894 l 4.87589,-0.21015 z m 136.45541,-11.69607 c -7.4959,-2.64996 -8.12648,-3.03761 -8.12648,-4.9957 0,-2.71032 6.53464,-3.17567 12.39289,-0.88253 1.97979,0.77496 2.23479,1.29433 2.23479,4.55181 0,2.02236 -0.0914,3.63295 -0.20317,3.57906 -0.11174,-0.0539 -2.94585,-1.06757 -6.29803,-2.25264 z"
         id="path1085"
         inkscape:connector-curvature="0" />
      <path
         style="fill:#e10512;stroke-width:0.81264883"
         d="m 60.111192,338.65599 c -39.469729,-5.30728 -78.451023,-24.51348 -106.437869,-52.44224 -27.900675,-27.84278 -44.843544,-59.33239 -53.16955,-98.81966 -9.316903,-44.18672 -0.959993,-92.554079 23.044262,-133.373503 19.968066,-33.955848 51.23363,-61.5291956 86.991577,-76.718549 16.619799,-7.059801 31.71714,-11.249454 52.415851,-14.545888 3.832615,-0.610375 13.339411,-1.014074 23.160492,-0.983493 24.572685,0.07651 39.403515,2.457519 61.330925,9.846332 11.52604,3.883896 30.64661,12.893884 40.25018,18.9666775 29.45149,18.6235724 53.29264,45.2694065 68.66358,76.7411675 10.49301,21.484282 16.75554,42.950876 18.74726,64.261526 l 0.53747,5.7508 -6.89697,-0.362 c -8.4592,-0.44399 -11.50599,0.48049 -15.68373,4.75888 -3.07044,3.14442 -3.19997,3.49413 -3.19997,8.63905 0,5.31301 0.0316,5.38856 3.46174,8.27178 2.1571,1.81315 6.13675,3.83564 10.55955,5.36645 7.74528,2.68077 9.34153,4.50306 5.48406,6.26064 -2.85907,1.30268 -10.14794,-0.19803 -14.29671,-2.94355 -2.4162,-1.59897 -3.21298,-1.79626 -3.90189,-0.96619 -1.47817,1.7811 -3.4598,7.15 -3.04142,8.24027 0.21892,0.5705 2.52724,2.082 5.1296,3.3589 4.22155,2.07139 5.58544,2.32163 12.65352,2.32163 4.75854,0 7.91058,0.32451 7.89346,0.81265 -0.0709,2.01989 -2.40513,12.15824 -4.67766,20.31622 -11.22011,40.27825 -33.80226,73.69957 -67.61686,100.07217 -22.44122,17.5023 -52.95779,30.94223 -80.85856,35.61126 -18.66072,3.12276 -44.049304,3.77639 -60.542338,1.55867 z M -57.38303,181.01073 c 1.140857,-0.43779 1.285437,-3.95681 1.285437,-31.28698 v -30.79371 h -2.844271 -2.844271 v 31.28698 c 0,30.30054 0.04915,31.28698 1.558834,31.28698 0.857357,0 2.137279,-0.22197 2.844271,-0.49327 z m 41.682666,-2.52785 c 2.328889,-1.14846 4.982204,-2.88417 5.8962552,-3.85713 l 1.6619076,-1.76902 -2.0727018,-1.9472 c -1.730747,-1.62595 -2.301299,-1.78123 -3.458308,-0.94121 -6.259005,4.54416 -14.500435,5.52489 -20.000133,2.38001 -3.917139,-2.23993 -6.167298,-5.17258 -6.400236,-8.34148 l -0.17736,-2.41275 17.065625,-0.40633 17.0656261,-0.40632 0.2817778,-2.43795 c 0.1549803,-1.34087 -0.148796,-4.37247 -0.6750511,-6.7369 -0.7542763,-3.3889 -1.8461106,-5.23857 -5.1576708,-8.7376 -3.631842,-3.83744 -4.894657,-4.6114 -9.323138,-5.71406 -8.133648,-2.02521 -14.84525,-0.10937 -20.658005,5.89687 -3.318241,3.42869 -6.266133,10.85566 -6.299346,15.8707 -0.02048,3.09012 2.567841,11.01532 4.640599,14.20915 1.600366,2.46593 8.162237,6.54392 12.035923,7.47993 4.607166,1.11324 10.684544,0.28259 15.574236,-2.12871 z M -40.657265,154.2191 c 0,-2.97451 2.779909,-6.97825 6.26215,-9.01897 4.36247,-2.55658 10.582346,-2.90143 14.86672,-0.82424 3.18547,1.5444 6.337442,5.64964 6.680738,8.70123 l 0.226777,2.01579 -14.018192,0.22235 c -12.480556,0.19797 -14.018193,0.0778 -14.018193,-1.09616 z m 64.332168,24.68532 c 5.829617,-3.84792 7.847636,-8.15951 6.376351,-13.62343 -1.203833,-4.47072 -5.069092,-7.37313 -13.8231,-10.37977 -7.5489792,-2.59276 -9.7644712,-4.10958 -9.7393441,-6.66799 0.045427,-4.62778 7.7420971,-6.37579 15.6280341,-3.54933 3.72727,1.33592 3.897309,1.32923 5.053205,-0.19914 2.089141,-2.76232 1.497126,-4.39216 -2.20592,-6.07304 -2.389764,-1.08475 -5.293562,-1.57321 -9.425808,-1.58556 -6.8889542,-0.0206 -10.6712576,1.4118 -13.2349696,5.0122 -2.26343836,3.17871 -2.33442324,9.71756 -0.1382072,12.73199 1.6690426,2.29086 7.8181695,5.62511 14.4693348,7.84574 5.093155,1.70045 6.907515,3.2989 6.907515,6.08552 0,3.34213 -2.604653,5.13178 -8.041055,5.52502 -4.652398,0.33652 -9.0820576,-1.0204 -13.269117,-4.06469 -1.1697674,-0.85051 -1.60320176,-0.75351 -2.63297413,0.58924 -1.97693087,2.57777 -1.12766407,4.55582 3.05812763,7.12279 6.0630593,3.71821 16.3376635,4.31971 21.0179275,1.23045 z m 75.402419,-1.14766 c 4.784048,-2.39337 6.527768,-3.83367 9.454638,-7.80957 1.97382,-2.68123 3.58876,-5.17052 3.58876,-5.53175 0,-0.36123 0.22197,-1.23524 0.49327,-1.94223 0.42444,-1.10607 -0.41298,-1.28544 -6.00141,-1.28544 -5.86391,0 -6.612584,0.17997 -7.708774,1.85296 -0.667754,1.01912 -2.713565,2.89208 -4.546242,4.16213 -2.98863,2.07113 -3.848323,2.27184 -8.339232,1.947 -4.589443,-0.33197 -5.258903,-0.63214 -8.026119,-3.59875 -3.750301,-4.02052 -6.819099,-11.79704 -6.192693,-15.69269 0.726297,-4.51692 4.731356,-11.67262 7.592644,-13.56551 5.943916,-3.93221 12.597471,-3.10598 18.116063,2.24962 3.131863,3.03938 3.903213,3.37763 8.420593,3.69254 6.57709,0.45852 7.50989,-0.20626 5.85317,-4.17135 -4.81515,-11.52427 -18.242098,-17.94867 -30.95555,-14.81131 -8.984556,2.21716 -14.357026,6.93416 -18.797348,16.50396 -1.853042,3.99369 -2.217914,5.89884 -2.236856,11.67962 -0.02023,6.16883 0.260356,7.4875 2.623669,12.33105 3.46589,7.10327 5.243056,9.26395 10.222887,12.42899 5.721852,3.63664 8.127016,4.35723 14.790111,4.43116 5.0878,0.0565 6.487262,-0.28841 11.648419,-2.87043 z m 83.943778,-0.47854 c 3.21813,-2.13672 5.27601,-4.33176 7.22856,-7.71032 2.44332,-4.22781 2.72764,-5.36246 2.71078,-10.81807 -0.0145,-4.67061 -0.43263,-6.87659 -1.78961,-9.44011 -4.43892,-8.38571 -10.86069,-12.50141 -19.50608,-12.50141 -6.09757,0 -9.47838,1.26163 -13.76953,5.13843 -4.92039,4.44528 -7.14087,9.57398 -7.15874,16.53471 -0.0125,4.86747 0.37266,6.56815 2.33994,10.33244 2.78385,5.32675 4.39688,6.94039 9.83485,9.8385 3.52318,1.87764 4.83069,2.12875 9.83707,1.88921 5.05277,-0.24176 6.33567,-0.6493 10.27276,-3.26338 z m -16.6079,-10.19874 c -4.38889,-4.70561 -5.04542,-8.92932 -2.18035,-14.02702 1.94097,-3.45349 4.37607,-4.86707 8.38426,-4.86707 3.34363,0 7.41165,4.19167 8.21286,8.46247 1.72191,9.17861 -8.61162,16.6557 -14.41677,10.43162 z m 62.55189,12.35171 c 3.99487,-1.66622 8.14633,-5.6934 10.01024,-9.7106 1.28785,-2.77566 1.51082,-5.35811 1.52606,-17.67511 l 0.0179,-14.42452 h -6.09487 -6.09487 v 13.36339 c 0,12.88785 -0.0685,13.44308 -1.92631,15.60286 -1.46693,1.70542 -2.65482,2.23946 -4.9812,2.23946 -2.32639,0 -3.51427,-0.53404 -4.98121,-2.23946 -1.85776,-2.15978 -1.92631,-2.71501 -1.92631,-15.60286 v -13.36339 h -6.15818 -6.15818 l 0.26648,15.23716 c 0.23441,13.4034 0.46208,15.59232 1.89177,18.18819 1.73455,3.14938 5.3029,6.46699 9.06777,8.43058 3.0369,1.58392 11.69487,1.55846 15.54096,-0.0457 z m -95.71097,-11.53906 c 0.002,-6.59262 0.36931,-13.29973 0.81515,-14.9047 0.91449,-3.2921 3.35181,-4.80204 7.75137,-4.80204 h 2.80603 v -5.68854 -5.68854 l -4.67273,0.0458 c -5.76971,0.0566 -8.93879,1.20908 -12.77366,4.64516 -4.9047,4.39466 -5.59334,6.97618 -5.95983,22.34196 -0.17873,7.49335 -0.11661,14.16723 0.13805,14.83084 0.34869,0.90869 1.87366,1.20657 6.17705,1.20657 h 5.71404 l 0.005,-11.98657 z m 135.45726,-14.56431 c -6.4822,-2.04918 -8.01907,-3.4179 -6.24204,-5.5591 1.28278,-1.54565 4.2943,-1.53251 9.59571,0.0419 4.15345,1.23344 4.21074,1.29424 4.21074,4.46956 0,1.77051 -0.27427,3.18189 -0.60949,3.13638 -0.33522,-0.0455 -3.46493,-0.98541 -6.95492,-2.08868 z"
         id="path1083"
         inkscape:connector-curvature="0" />
    </g>
  </g>
</svg>
